<?xml version="1.0" encoding="utf-8"?>
<svg xmlns="http://www.w3.org/2000/svg" viewBox="147 0 36 36">
  <!-- Official BAPRO "P" logo with original brand colors -->
  <path fill="#25b4bd" d="M150.83,26.88v1.53A7.69,7.69,0,0,0,158.44,36h3.95a2.22,2.22,0,0,0,2.32-2.29V18.82a1.18,1.18,0,0,0-1.92-.88l-11.15,7.18a1.75,1.75,0,0,0-.81,1.76"/>
  <path fill="#279d2e" d="M152.4,21.24l10.68-6.89c2.21-1.41,4.47-.06,4.47,2.18v8.29A1.46,1.46,0,0,0,169,26.35h1.91c6.51,0,12.08-4.7,12.08-12.7C183,5.18,176.5,0,168.89,0H153a2.2,2.2,0,0,0-2.15,2.18V20.47a1,1,0,0,0,1.57.77"/>
</svg>
