<?xml version="1.0" encoding="utf-8"?>
<svg xmlns="http://www.w3.org/2000/svg" viewBox="33 377 88 88">
  <!-- Official BNA circular bank emblem extracted from https://www.bna.com.ar/Images/Logo___BNA.svg -->
  <path fill="#FFFFFF" d="M77.091,376.905c-24.04,0-43.609,19.56-43.609,43.609
    c0,24.05,19.569,43.597,43.609,43.597c24.039,0,43.598-19.56,43.598-43.597
    C120.689,396.474,101.13,376.905,77.091,376.905z M101.655,445.838
    c0,0.075-0.054,0.128-0.128,0.128H52.656c-0.075,0-0.128-0.053-0.128-0.128
    v-4.909c0-0.075,0.053-0.127,0.128-0.127h48.872c0.074,0,0.128,0.052,0.128,0.127
    V445.838L101.655,445.838z M68.742,432.977V408.21h5.615v24.767h5.478V408.21
    h5.605v24.767h5.605V408.21h5.595v24.767h2.486v5.037c0,0.074-0.053,0.129-0.128,0.129
    h-43.79c-0.076,0-0.129-0.055-0.129-0.129v-5.037h2.477V408.21h5.594v24.755h5.606
    L68.742,432.977z M103.295,402.99l-1.554,2.723c-0.054,0.085-0.171,0.161-0.268,0.161
    H52.731c-0.096,0-0.214-0.075-0.268-0.161l-1.553-2.723c-0.054-0.085-0.022-0.193,0.063-0.247
    l25.969-13.803c0.085-0.042,0.236-0.042,0.31,0l25.958,13.803c0.085,0.044,0.118,0.161,0.075,0.247
    H103.295z"/>
  <path fill="#FFFFFF" d="M89.662,401.125l-12.229-5.959c-0.086-0.042-0.204-0.096-0.247-0.118
    c-0.042-0.021-0.15,0-0.246,0.033l-12.399,6.044c-0.086,0.043-0.076,0.076,0.021,0.076H89.64
    C89.737,401.201,89.748,401.169,89.662,401.125z"/>
</svg>
